<?xml version="1.0" encoding="UTF-8"?>
<svg xmlns="http://www.w3.org/2000/svg" version="1.1" viewBox="0 0 389.31 71.49">
  <defs>
    <style>
      .cls-1 {
        fill: #231f20;
      }
    </style>
  </defs>
  <!-- Generator: Adobe Illustrator 28.7.1, SVG Export Plug-In . SVG Version: 1.2.0 Build 142)  -->
  <g>
    <g id="Layer_1">
      <path class="cls-1" d="M105.08,20.52c1.04,0,1.94.84,1.94,1.94v37.01c0,1.04-.94,1.89-1.94,1.89h-5.02c-.94,0-1.89-.75-1.89-1.79v-3.43c-2.53,3.73-6.91,6.31-13.27,6.31-10.63,0-17.19-7.05-17.19-17.54v-22.56c0-1.04.94-1.89,1.94-1.89h5.02c1.04,0,1.89.84,1.89,1.89v21.11c0,6.81,3.58,11.33,10.63,11.33s10.98-4.67,10.98-11.23v-21.21c0-1.04.94-1.89,1.89-1.89h5.02M31.05,0C13.86,0,0,13.36,0,31.2s13.86,31.2,31.05,31.2c2.93,0,5.76-.4,8.45-1.14l3.38,8.69c.35.94,1.04,1.54,2.29,1.54h5.37c1.29,0,2.24-.84,1.64-2.48l-4.37-11.38c8.59-5.42,14.31-15,14.31-26.48C62.1,13.36,48.24,0,31.05,0M44.56,49.33l-3.92-10.18c-.35-.84-1.04-1.64-2.53-1.64h-5.12c-1.29,0-2.29.84-1.69,2.48l5.17,13.36c-1.69.45-3.53.65-5.42.65-12.57,0-21.51-9.89-21.51-22.8S18.48,8.4,31.05,8.4s21.51,9.89,21.51,22.8c0,7.55-3.03,14.01-8,18.13M389.16,59.27c.45,1.04-.1,2.04-1.34,2.04h-5.61c-1.04,0-1.89-.5-2.24-1.54l-10.38-27.92-10.53,27.92c-.45,1.09-1.19,1.54-2.24,1.54h-5.02c-1.04,0-1.79-.45-2.24-1.54l-10.63-28.07-10.48,28.07c-.45,1.04-1.19,1.54-2.24,1.54h-5.27c-1.04,0-1.79-.5-2.24-1.54l-10.38-28.07-10.73,28.07c-.45,1.09-1.19,1.54-2.24,1.54h-5.02c-1.04,0-1.79-.45-2.24-1.54l-10.48-28.07-10.48,28.07c-.35,1.04-1.19,1.54-2.24,1.54h-5.47c-1.29,0-1.79-1.04-1.34-2.04l14.21-37.16c.45-1.09,1.19-1.64,2.24-1.64h6.11c1.04,0,1.79.5,2.24,1.64l10.23,27.13,10.14-27.13c.45-1.09,1.19-1.64,2.24-1.64h6.01c1.04,0,1.79.5,2.24,1.64l10.04,27.13,10.04-27.13c.45-1.09,1.19-1.64,2.24-1.64h6.06c1.04,0,1.79.5,2.24,1.64l10.18,27.13,9.94-27.13c.45-1.09,1.19-1.64,2.24-1.64h6.11c1.04,0,1.79.5,2.24,1.64l14.11,37.16M153.72,20.52h-5.02c-1.04,0-1.94.84-1.94,1.94v3.38c-2.53-3.83-7.5-6.56-13.36-6.56-11.08,0-20.57,8.74-20.57,21.51s9.54,21.61,20.52,21.61c5.96,0,10.78-2.73,13.46-6.56v3.58c0,1.04.94,1.89,1.94,1.89h5.02c1.04,0,1.89-.84,1.89-1.89V22.46c-.05-1.09-.89-1.94-1.94-1.94M134.34,54.25c-7.3,0-12.52-5.96-12.52-13.36s5.17-13.27,12.52-13.27,12.52,5.76,12.52,13.27c-.05,7.45-5.32,13.36-12.52,13.36M213.58,55.54c1.09,1.34.15,2.38-.45,2.83-3.48,2.63-8.1,4.07-13.12,4.07-12.67,0-21.11-9.29-21.11-21.51s8.45-21.61,21.11-21.61c5.02,0,9.59,1.44,13.12,4.07.6.45,1.44,1.34.45,2.83l-2.38,3.33c-.94,1.29-2.04.94-2.98.35-2.24-1.34-4.87-2.48-7.9-2.48-7.4,0-12.32,5.96-12.32,13.51s4.92,13.46,12.32,13.46c3.08,0,5.51-1.19,7.75-2.48.94-.5,1.94-.94,2.98.45l2.53,3.18h0ZM237.23,19.38c-11.92,0-21.41,9.34-21.41,21.51s9.54,21.51,21.41,21.51,21.41-9.29,21.41-21.51c.05-12.12-9.49-21.51-21.41-21.51M237.23,54.2c-7.3,0-12.52-5.86-12.52-13.27s5.17-13.27,12.52-13.27,12.52,5.76,12.52,13.27-5.17,13.27-12.52,13.27M171.3,1.09c1.09,0,1.89.94,1.89,1.94v56.34c0,1.04-.75,1.94-1.89,1.94h-5.02c-1.04,0-1.94-.94-1.94-1.94V3.08c0-1.04.94-1.94,1.94-1.94h5.02"/>
    </g>
  </g>
</svg>