<?xml version="1.0" encoding="UTF-8"?>
<svg xmlns="http://www.w3.org/2000/svg" version="1.1" viewBox="0 0 466.41 99.65">
  <defs>
    <style>
      .cls-1 {
        fill: #231f20;
      }
    </style>
  </defs>
  <!-- Generator: Adobe Illustrator 28.7.1, SVG Export Plug-In . SVG Version: 1.2.0 Build 142)  -->
  <g>
    <g id="Layer_1">
      <g id="Layer_1-2" data-name="Layer_1">
        <path class="cls-1" d="M164.63,57.4l-2.78,7.88h-.25c-.45-1.77-1.31-4.5-2.68-7.73l-14.91-37.44h-14.6v59.73h9.65v-36.84c0-2.32,0-4.95-.1-8.19-.1-1.62-.25-2.88-.3-3.79h.25c.45,2.32,1.01,3.99,1.41,5.1l17.94,43.56h6.82l17.79-43.96c.4-1.01.76-3.03,1.16-4.7h.25c-.25,4.4-.4,8.34-.45,10.71v37.85h10.26V19.96h-14.05l-15.41,37.44h0ZM203.74,36.79h10.06v42.8h-10.06v-42.8ZM208.85,18.7c-1.72,0-3.08.61-4.24,1.72-1.16,1.06-1.77,2.48-1.77,4.19s.61,3.03,1.77,4.09,2.53,1.62,4.24,1.62,3.18-.61,4.24-1.62c1.16-1.06,1.77-2.48,1.77-4.09s-.61-3.03-1.77-4.19c-1.01-1.11-2.48-1.72-4.24-1.72M249.37,36.38c-1.87-.4-3.79-.61-5.66-.61-4.55,0-8.74,1.01-12.23,3.03s-6.27,4.8-8.03,8.29c-1.87,3.54-2.78,7.63-2.78,12.38s.91,7.73,2.68,11.07c1.77,3.23,4.24,5.86,7.58,7.63,3.18,1.77,6.87,2.68,11.07,2.68s8.89-1.01,12.13-2.88l.1-.1v-9.25l-.4.3c-1.47,1.06-3.18,2.02-4.85,2.53-1.77.61-3.39.91-4.8.91-3.99,0-7.18-1.16-9.4-3.69-2.32-2.48-3.49-5.86-3.49-10.11s1.16-7.88,3.54-10.41,5.56-3.84,9.4-3.84,6.57,1.06,9.6,3.23l.4.3v-9.8l-.1-.1c-1.26-.56-2.73-1.16-4.75-1.57M282.52,36.08c-2.48,0-4.8.76-6.82,2.37-1.72,1.41-2.88,3.39-3.84,5.81h-.1v-7.48h-10.06v42.8h10.06v-21.88c0-3.69.76-6.82,2.48-9.05,1.72-2.32,3.84-3.49,6.47-3.49s1.87.25,3.03.4c1.06.3,1.87.61,2.37,1.01l.4.3v-10.06l-.25-.1c-.66-.4-2.02-.66-3.74-.66M309.86,35.83c-7.02,0-12.68,2.07-16.62,6.16-3.99,4.09-5.96,9.75-5.96,16.83s2.02,12.03,5.86,15.97c3.84,3.84,9.1,5.86,15.66,5.86s12.38-2.07,16.32-6.27c3.99-4.19,5.96-9.75,5.96-16.62s-1.87-12.23-5.66-16.12c-3.59-3.84-8.89-5.81-15.56-5.81M317.89,68.72c-1.87,2.37-4.8,3.54-8.44,3.54s-6.57-1.16-8.64-3.69c-2.07-2.37-3.08-5.86-3.08-10.26s1.06-8.03,3.08-10.51c2.07-2.48,4.95-3.69,8.59-3.69s6.32,1.16,8.34,3.54,3.08,5.86,3.08,10.41c-.15,4.65-1.01,8.29-2.93,10.66M353.52,54.52c-3.18-1.31-5.15-2.32-6.11-3.18-.76-.76-1.16-1.87-1.16-3.23s.45-2.32,1.62-3.08,2.48-1.16,4.4-1.16,3.49.3,5.15.76,3.23,1.16,4.5,2.07l.4.3v-9.4l-.25-.1c-1.16-.45-2.68-.91-4.55-1.31-1.87-.3-3.54-.45-4.95-.45-4.8,0-8.74,1.16-11.82,3.69-3.08,2.37-4.55,5.66-4.55,9.4s.3,3.79,1.01,5.26,1.72,2.88,3.08,3.99c1.41,1.06,3.39,2.32,6.16,3.49,2.32,1.01,4.09,1.77,5.15,2.37,1.06.61,1.77,1.31,2.32,1.87.4.61.61,1.41.61,2.37,0,2.88-2.17,4.24-6.57,4.24s-3.49-.3-5.56-1.01-3.99-1.72-5.66-2.88l-.4-.3v9.8l.25.1c1.47.71,3.23,1.16,5.41,1.72,2.17.4,4.09.71,5.81.71,5.15,0,9.4-1.16,12.43-3.69,3.08-2.48,4.7-5.66,4.7-9.75s-.76-5.41-2.48-7.33c-2.17-1.77-4.95-3.69-8.94-5.26M391.52,35.83c-7.02,0-12.68,2.07-16.62,6.16-3.94,4.09-5.96,9.75-5.96,16.83s2.02,12.03,5.86,15.97c3.84,3.84,9.1,5.86,15.66,5.86s12.38-2.07,16.32-6.27c3.99-4.19,5.96-9.75,5.96-16.62s-1.87-12.23-5.66-16.12c-3.59-3.84-8.94-5.81-15.56-5.81M399.45,68.72c-1.87,2.37-4.8,3.54-8.44,3.54s-6.57-1.16-8.64-3.69c-2.07-2.37-3.08-5.86-3.08-10.26s1.06-8.03,3.08-10.51c2.07-2.48,4.95-3.69,8.59-3.69s6.32,1.16,8.34,3.54,3.08,5.86,3.08,10.41-1.01,8.29-2.93,10.66M466.41,45.02v-8.29h-10.11v-12.68l-.3.1-9.6,2.88-.25.1v9.65h-15.16v-5.41c0-2.48.61-4.4,1.72-5.66,1.06-1.21,2.68-1.87,4.7-1.87s2.88.3,4.5,1.01l.4.25v-8.74l-.25-.1c-1.41-.45-3.23-.76-5.66-.76s-5.66.71-8.03,1.87c-2.37,1.31-4.19,3.08-5.51,5.51-1.31,2.32-2.02,4.95-2.02,7.93v5.96h-7.02v8.19h7.02v34.61h10.11v-34.51h15.16v22.03c0,9.05,4.24,13.59,12.73,13.59s2.88-.25,4.24-.45c1.47-.3,2.53-.71,3.18-1.01l.1-.1v-8.29l-.4.3c-.61.4-1.16.71-2.07.91-.76.25-1.47.3-2.02.3-2.02,0-3.39-.45-4.4-1.62-.91-1.06-1.41-2.88-1.41-5.51v-20.21h10.36Z"/>
        <path class="cls-1" d="M0,0h47.35v47.35H0V0h0Z"/>
        <path class="cls-1" d="M52.25,0h47.35v47.35h-47.35V0h0Z"/>
        <path class="cls-1" d="M0,52.3h47.35v47.35H0v-47.35h0Z"/>
        <path class="cls-1" d="M52.25,52.3h47.35v47.35h-47.35v-47.35h0Z"/>
      </g>
    </g>
  </g>
</svg>