<?xml version="1.0" encoding="UTF-8"?>
<svg xmlns="http://www.w3.org/2000/svg" version="1.1" viewBox="0 0 391.07 172.26">
  <defs>
    <style>
      .cls-1 {
        fill: #231f20;
      }
    </style>
  </defs>
  <!-- Generator: Adobe Illustrator 28.7.1, SVG Export Plug-In . SVG Version: 1.2.0 Build 142)  -->
  <g>
    <g id="Layer_1">
      <g>
        <path class="cls-1" d="M86.13,172.26C38.64,172.26,0,133.63,0,86.13S38.64,0,86.13,0v11.28C44.86,11.28,11.28,44.86,11.28,86.13s33.58,74.85,74.85,74.85v11.28Z"/>
        <path class="cls-1" d="M41.07,140.23C11.32,115.26,7.42,70.75,32.38,41.01c24.97-29.75,69.48-33.65,99.22-8.7l-7.25,8.64c-24.98-20.96-62.36-17.68-83.32,7.31-20.96,24.98-17.68,62.36,7.31,83.32l-7.25,8.64Z"/>
        <path class="cls-1" d="M60.31,134.65c-26.73-14.12-37-47.32-22.9-74.01,14.12-26.73,47.32-37,74.01-22.9l-5.27,9.98c-21.19-11.19-47.55-3.03-58.76,18.19-11.19,21.19-3.03,47.55,18.19,58.76l-5.27,9.98Z"/>
        <path class="cls-1" d="M86.13,125.27c-21.58,0-39.14-17.56-39.14-39.14s17.56-39.14,39.14-39.14v11.28c-15.36,0-27.86,12.5-27.86,27.86s12.5,27.86,27.86,27.86v11.28Z"/>
        <g>
          <path class="cls-1" d="M96.44,76.77c-1.29-1.36-2.64-2.51-4.14-3.32-1.42-.81-2.92-1.22-4.41-1.22-2.03,0-3.87.41-5.49,1.15-1.63.75-2.98,1.76-4.14,2.98-1.15,1.29-2.03,2.71-2.64,4.34s-.88,3.32-.88,5.09.27,3.46.88,5.09c.61,1.63,1.49,3.05,2.64,4.34,1.15,1.29,2.51,2.24,4.14,2.98,1.63.75,3.46,1.15,5.49,1.15,1.76,0,3.39-.34,4.88-1.08s2.78-1.76,3.8-3.12l7.46,8.07c-1.08,1.15-2.44,2.1-3.87,2.92-1.49.81-2.92,1.49-4.41,1.97-1.49.47-2.92.88-4.27,1.08-1.36.2-2.58.34-3.53.34-3.39,0-6.51-.54-9.49-1.7s-5.56-2.71-7.73-4.81c-2.17-2.1-3.93-4.54-5.15-7.46-1.29-2.92-1.9-6.17-1.9-9.76s.61-6.85,1.9-9.76c1.29-2.92,2.98-5.42,5.15-7.46,2.17-2.1,4.75-3.66,7.73-4.81,2.98-1.15,6.17-1.7,9.49-1.7,2.85,0,5.76.54,8.61,1.63,2.92,1.08,5.42,2.85,7.59,5.22l-7.73,7.87Z"/>
          <path class="cls-1" d="M114.21,89.79c.34,3.39,1.7,6.04,3.93,7.93,2.24,1.9,4.95,2.85,8.14,2.85,2.78,0,5.15-.61,7.05-1.76s3.53-2.64,5.02-4.41l8,6.1c-2.64,3.25-5.56,5.56-8.75,6.98-3.25,1.36-6.65,2.1-10.17,2.1s-6.51-.54-9.49-1.7-5.56-2.71-7.73-4.81c-2.17-2.1-3.93-4.54-5.15-7.46-1.29-2.92-1.9-6.17-1.9-9.76s.61-6.85,1.9-9.76c1.29-2.92,2.98-5.42,5.15-7.46,2.17-2.1,4.75-3.66,7.73-4.81,2.98-1.15,6.17-1.7,9.49-1.7,3.12,0,5.97.54,8.54,1.63,2.58,1.08,4.81,2.71,6.65,4.75,1.83,2.1,3.25,4.61,4.27,7.66s1.56,6.51,1.56,10.51v3.12h-34.24ZM137.12,81.32c-.07-3.32-1.08-5.97-3.05-7.87-1.97-1.9-4.75-2.85-8.27-2.85s-6.04.95-8,2.92-3.19,4.54-3.59,7.8h22.92Z"/>
          <path class="cls-1" d="M153.13,63.21h11.19v7.12h.2c1.22-2.64,2.98-4.68,5.29-6.1s4.95-2.17,7.93-2.17c.68,0,1.36.07,2.03.2.68.14,1.29.27,2.03.47v10.92c-.95-.27-1.83-.47-2.78-.61-.88-.14-1.76-.2-2.64-.2-2.64,0-4.68.47-6.31,1.49-1.56.95-2.78,2.1-3.66,3.32-.81,1.29-1.42,2.51-1.7,3.73-.27,1.29-.41,2.17-.41,2.85v24.21h-11.19v-45.23Z"/>
          <path class="cls-1" d="M193,89.79c.34,3.39,1.7,6.04,3.93,7.93s4.95,2.85,8.14,2.85c2.78,0,5.15-.61,7.05-1.76s3.53-2.64,5.02-4.41l8,6.1c-2.58,3.25-5.56,5.56-8.75,6.98-3.25,1.36-6.65,2.1-10.17,2.1s-6.51-.54-9.49-1.7-5.56-2.71-7.73-4.81c-2.17-2.1-3.93-4.54-5.15-7.46-1.29-2.92-1.9-6.17-1.9-9.76s.61-6.85,1.9-9.76,2.98-5.42,5.15-7.46c2.17-2.1,4.75-3.66,7.73-4.81,2.98-1.15,6.17-1.7,9.49-1.7,3.12,0,5.97.54,8.54,1.63,2.58,1.08,4.81,2.71,6.65,4.75,1.83,2.1,3.25,4.61,4.27,7.66s1.56,6.51,1.56,10.51v3.12h-34.24ZM215.92,81.32c-.07-3.32-1.08-5.97-3.05-7.87-1.97-1.9-4.75-2.85-8.27-2.85s-6.04.95-8,2.92-3.19,4.54-3.59,7.8h22.92Z"/>
          <path class="cls-1" d="M230.09,37.31h11.19v31.67h.27c.54-.75,1.29-1.49,2.17-2.31.88-.81,1.9-1.49,3.19-2.24,1.22-.68,2.64-1.22,4.27-1.7,1.63-.41,3.46-.68,5.63-.68,3.19,0,6.1.61,8.75,1.83,2.64,1.22,4.95,2.92,6.85,5.02,1.9,2.1,3.39,4.61,4.41,7.53,1.08,2.92,1.56,5.97,1.56,9.29s-.47,6.44-1.49,9.29c-1.02,2.92-2.44,5.42-4.41,7.53-1.9,2.1-4.27,3.8-6.98,5.02s-5.83,1.83-9.22,1.83c-3.19,0-6.1-.61-8.88-1.9-2.71-1.22-4.88-3.25-6.51-6.04h-.2v6.78h-10.65V37.31h.07ZM267.18,85.79c0-1.76-.27-3.46-.88-5.09s-1.49-3.05-2.64-4.34c-1.15-1.22-2.51-2.24-4.14-2.98s-3.46-1.15-5.49-1.15-3.87.41-5.49,1.15-2.98,1.76-4.14,2.98c-1.15,1.29-2.03,2.71-2.58,4.34-.61,1.63-.88,3.32-.88,5.09s.27,3.46.88,5.09,1.49,3.05,2.58,4.34c1.15,1.29,2.51,2.24,4.14,2.98s3.46,1.15,5.49,1.15,3.87-.41,5.49-1.15,2.98-1.76,4.14-2.98c1.15-1.22,2.03-2.71,2.64-4.34.61-1.63.88-3.32.88-5.09Z"/>
          <path class="cls-1" d="M283.25,63.21h11.19v7.12h.2c1.22-2.64,2.98-4.68,5.29-6.1,2.31-1.42,4.95-2.17,7.93-2.17.68,0,1.36.07,2.03.2.68.14,1.29.27,2.03.47v10.92c-.95-.27-1.83-.47-2.78-.61-.88-.14-1.76-.2-2.64-.2-2.64,0-4.68.47-6.31,1.49-1.56.95-2.78,2.1-3.66,3.32-.81,1.29-1.42,2.51-1.7,3.73-.27,1.29-.41,2.17-.41,2.85v24.21h-11.19v-45.23Z"/>
          <path class="cls-1" d="M341.84,102.2h-.27c-1.63,2.58-3.66,4.41-6.17,5.63-2.51,1.15-5.22,1.76-8.2,1.76-2.03,0-4.07-.27-6.04-.81s-3.73-1.42-5.22-2.51c-1.49-1.15-2.78-2.51-3.66-4.2-.95-1.7-1.42-3.66-1.42-5.9,0-2.44.41-4.54,1.29-6.24.88-1.7,2.03-3.19,3.53-4.34,1.49-1.15,3.19-2.1,5.09-2.78s3.93-1.22,6.04-1.56c2.1-.34,4.2-.54,6.31-.68,2.1-.07,4.14-.14,5.97-.14h2.78v-1.22c0-2.85-.95-4.95-2.92-6.37-1.9-1.42-4.41-2.1-7.39-2.1-2.37,0-4.54.41-6.65,1.29-2.03.81-3.8,1.97-5.29,3.46l-5.9-5.9c2.51-2.58,5.42-4.41,8.75-5.56,3.32-1.15,6.78-1.7,10.31-1.7,3.19,0,5.83.34,8,1.08s4,1.63,5.42,2.78c1.42,1.15,2.51,2.44,3.32,3.93.75,1.49,1.36,2.98,1.7,4.48s.54,2.98.61,4.41c.07,1.42.07,2.64.07,3.73v25.97h-10.1v-6.51h.07ZM341.23,88.17h-2.31c-1.56,0-3.32.07-5.22.2-1.9.14-3.73.41-5.42.88-1.7.47-3.19,1.15-4.34,2.1-1.15.88-1.76,2.17-1.76,3.8,0,1.08.2,1.97.68,2.71s1.08,1.36,1.83,1.83c.75.47,1.56.88,2.51,1.08.95.2,1.9.34,2.78.34,3.87,0,6.71-.95,8.54-2.78,1.83-1.83,2.78-4.41,2.78-7.59v-2.58h-.07Z"/>
          <path class="cls-1" d="M382.26,75.76c-2.17-3.05-5.09-4.61-8.75-4.61-1.49,0-2.98.41-4.41,1.15s-2.17,1.97-2.17,3.66c0,1.36.61,2.37,1.76,2.98,1.15.61,2.64,1.15,4.48,1.63,1.83.41,3.73.88,5.83,1.36,2.1.47,4,1.22,5.83,2.17,1.83.95,3.32,2.31,4.48,4,1.15,1.7,1.76,4,1.76,6.98,0,2.71-.54,4.95-1.7,6.85-1.15,1.83-2.64,3.32-4.48,4.48-1.83,1.15-3.93,1.97-6.17,2.44-2.31.47-4.61.75-6.92.75-3.46,0-6.71-.47-9.63-1.49-2.92-1.02-5.56-2.85-7.87-5.42l7.46-7.05c1.42,1.63,2.98,2.98,4.61,4,1.63,1.02,3.66,1.56,6.04,1.56.81,0,1.63-.07,2.51-.27s1.7-.47,2.44-.95c.75-.41,1.36-1.02,1.83-1.63.47-.68.68-1.42.68-2.31,0-1.56-.61-2.71-1.76-3.46-1.15-.75-2.64-1.36-4.48-1.83-1.83-.47-3.73-.88-5.83-1.29s-4-1.08-5.83-1.97c-1.83-.88-3.32-2.17-4.48-3.8-1.15-1.63-1.76-3.87-1.76-6.78,0-2.51.54-4.68,1.56-6.51s2.37-3.39,4.07-4.54c1.7-1.22,3.59-2.1,5.76-2.64,2.17-.54,4.41-.81,6.65-.81,2.98,0,5.97.54,8.88,1.56s5.29,2.78,7.12,5.29l-7.53,6.51Z"/>
        </g>
      </g>
    </g>
  </g>
</svg>