<?xml version="1.0" encoding="UTF-8"?>
<svg xmlns="http://www.w3.org/2000/svg" version="1.1" viewBox="0 0 471.15 118.56">
  <defs>
    <style>
      .cls-1 {
        fill: #231f20;
      }
    </style>
  </defs>
  <!-- Generator: Adobe Illustrator 28.7.1, SVG Export Plug-In . SVG Version: 1.2.0 Build 142)  -->
  <g>
    <g id="Layer_1">
      <g>
        <g>
          <path class="cls-1" d="M40.86,68.17c-2.35,1.52-5.53.83-7.05-1.59L1.28,13.02C-1.39,8.77.07,2.29,6.05.13c.19-.06.38-.13.64-.13h34.12c2.8,0,5.15,2.54,5.15,5.4v6.29c0,2.86-2.29,5.15-5.08,5.15h-17.66l24.52,40.85c1.46,2.41.76,5.59-1.59,7.12l-5.27,3.37Z"/>
          <path class="cls-1" d="M64.62,16.84c-2.73,0-4.96-2.22-5.02-5.02v-5.59c0-4.32,3.43-5.97,7.75-5.97l62.2-.06c5.02,0,9.28,4.57,7.88,10.86-.06.19-.13.38-.25.57l-17.09,28.46c-1.46,2.35-4.57,3.05-6.92,1.59l-5.72-3.3c-2.35-1.46-3.05-4.64-1.59-6.99l8.77-14.55h-50Z"/>
          <path class="cls-1" d="M93.85,51.71c1.4-2.35,4.51-3.11,6.86-1.72l4.76,2.86c3.75,2.22,3.37,6.04,1.14,9.72l-31.26,52.16c-2.54,4.32-7.81,5.4-12.45,1.02-.13-.13-.25-.32-.38-.51l-17.09-28.84c-1.27-2.48-.25-5.46,2.22-6.67l5.78-3.24c2.48-1.27,5.53-.25,6.8,2.22l8.64,14.49,24.97-41.49Z"/>
        </g>
        <g>
          <path class="cls-1" d="M215.58,35.94l-3.73-1.77c-2.21-1.08-4.81-.13-5.82,2.09l-1.01,1.96-16.33,34.86-16.33-34.86-1.01-1.96c-1.01-2.21-3.61-3.16-5.82-2.09l-3.73,1.77c-2.21,1.08-3.23,3.8-2.21,6.01l.95,1.83,22.15,47.39c1.08,2.28,3.35,3.73,5.88,3.8h.13c2.53,0,4.81-1.46,5.88-3.8l22.15-47.39.95-1.83c1.2-2.21.13-5-2.09-6.01Z"/>
          <path class="cls-1" d="M250.5,92.7l3.73,1.77c2.21,1.08,4.81.13,5.82-2.09l1.01-1.96,16.33-34.86,16.33,34.86,1.01,1.96c1.01,2.21,3.61,3.16,5.82,2.09l3.73-1.77c2.21-1.08,3.23-3.8,2.21-6.01l-.95-1.83-22.15-47.39c-1.08-2.28-3.35-3.73-5.88-3.8h-.13c-2.53,0-4.81,1.46-5.88,3.8l-22.15,47.39-.95,1.83c-1.14,2.21-.06,5,2.09,6.01Z"/>
          <path class="cls-1" d="M382.69,46.76c2.4.13,4.49-1.77,4.56-4.18l.13-4.11c.06-2.4-1.83-4.62-4.3-4.75h-28.28c-6.77.44-16.83,5.32-16.83,16.89s9.93,17.02,15.31,18.16l13.35,3.23c.19.06.38.06.57.13.7.13,4.24.82,4.24,4.81,0,2.4-1.2,3.8-3.54,4.18h-26.83c-2.4-.13-4.49,1.77-4.56,4.18l-.13,4.11c-.06,2.4,1.83,4.62,4.3,4.75h28.35c6.26-.57,15.63-5.63,15.63-17.27s-9.68-16.77-15.12-17.72l-13.16-3.16c-.06,0-.13,0-.19-.06-.19-.06-5-1.08-5-5.38,0-2.85,2.72-3.61,4.49-3.86h25.25l1.77.06Z"/>
          <path class="cls-1" d="M471.15,38.03c0-2.4-1.96-4.37-4.43-4.3h-45.12c-2.4-.06-4.43,1.9-4.43,4.3v4.18c0,2.4,2.02,4.56,4.43,4.62h16.01v40.88h0v2.09c-.06,2.4,1.9,4.43,4.3,4.43h4.18c2.4,0,4.56-2.02,4.62-4.43v-2.09h0v-40.88h16.01c2.4-.06,4.43-2.21,4.43-4.62v-4.18Z"/>
        </g>
      </g>
    </g>
  </g>
</svg>