<?xml version="1.0" encoding="UTF-8"?>
<svg xmlns="http://www.w3.org/2000/svg" version="1.1" viewBox="0 0 461.6 87.74">
  <defs>
    <style>
      .cls-1 {
        fill: #231f20;
      }
    </style>
  </defs>
  <!-- Generator: Adobe Illustrator 28.7.1, SVG Export Plug-In . SVG Version: 1.2.0 Build 142)  -->
  <g>
    <g id="Layer_1">
      <g>
        <path class="cls-1" d="M282.23,16.86v57.48h15.99V16.86h-15.99ZM154.3,16.86v57.48h16.42V29.39h12.97c4.32,0,6.92.86,9.08,3.03,2.59,2.59,3.46,7.35,3.46,15.13v26.36h15.99v-31.55c0-22.91-14.7-25.93-28.53-25.93l-29.39.43ZM308.16,16.86v57.48h26.36c14.26,0,18.58-2.16,23.77-7.35,3.46-3.46,5.62-11.67,5.62-20.75,0-8.21-1.73-15.13-5.19-19.88-6.05-8.21-14.7-9.51-27.66-9.51h-22.91ZM324.16,29.39h6.92c9.94,0,16.86,4.32,16.86,16.42s-6.48,16.42-16.86,16.42h-6.92V29.39ZM258.46,16.86l-13.4,45.81-12.97-45.81h-17.72l18.58,57.48h23.34l18.58-57.48h-16.42ZM371.7,74.34h16.42V16.86h-16.42v57.48ZM417.08,16.86l-22.47,57.48h15.99l3.46-10.37h26.8l3.46,9.94h17.29l-22.91-57.48-21.61.43ZM427.45,27.23l9.94,26.8h-19.88l9.94-26.8Z"/>
        <path class="cls-1" d="M49.27,26.36v-7.78h2.16c21.61-.86,35.87,18.58,35.87,18.58,0,0-15.13,21.18-31.55,21.18-2.16,0-4.32-.43-6.48-.86v-24.2c8.64.86,9.94,4.75,15.13,12.97l11.24-9.51s-8.21-10.81-22.04-10.81c-1.3,0-2.59.43-4.32.43M49.27,0v11.67h2.16c30.25-.86,49.7,24.64,49.7,24.64,0,0-22.47,27.23-45.81,27.23-2.16,0-3.89,0-6.05-.43v7.35c1.73,0,3.46.43,5.19.43,22.04,0,37.6-11.24,53.16-24.2,2.59,2.16,12.97,6.92,15.13,9.08-14.7,12.1-48.84,22.04-67.86,22.04-1.73,0-3.46,0-5.19-.43v10.37h82.98V0H49.27ZM49.27,57.05v6.05c-20.31-3.46-25.93-24.64-25.93-24.64,0,0,9.51-10.81,25.93-12.53v6.92h0c-8.64-.86-15.13,6.92-15.13,6.92,0,0,3.89,13.4,15.13,17.29M13.4,38.03s12.1-17.72,35.87-19.45v-6.48C22.91,14.26,0,36.74,0,36.74c0,0,12.97,37.6,49.27,41.06v-6.92c-26.8-3.46-35.87-32.85-35.87-32.85Z"/>
      </g>
    </g>
  </g>
</svg>