<?xml version="1.0" encoding="UTF-8"?>
<svg xmlns="http://www.w3.org/2000/svg" version="1.1" viewBox="0 0 380.65 104.86">
  <defs>
    <style>
      .cls-1 {
        fill: #231f20;
      }
    </style>
  </defs>
  <!-- Generator: Adobe Illustrator 28.7.1, SVG Export Plug-In . SVG Version: 1.2.0 Build 142)  -->
  <g>
    <g id="Layer_1">
      <g>
        <path class="cls-1" d="M119.71,50.41c0,17.15,11.01,29.1,26.27,29.1s26.27-11.95,26.27-29.1-11.01-29.1-26.27-29.1-26.27,11.95-26.27,29.1ZM162.18,50.41c0,12.27-6.69,20.21-16.2,20.21s-16.2-7.94-16.2-20.21,6.69-20.21,16.2-20.21,16.2,7.94,16.2,20.21Z"/>
        <path class="cls-1" d="M200.6,79.51c11.56,0,18.17-9.75,18.17-21.47s-6.61-21.47-18.17-21.47c-5.35,0-9.28,2.12-11.88,5.19v-4.4h-9.44v55.45h9.44v-18.48c2.6,3.07,6.53,5.19,11.88,5.19h0ZM188.49,56.86c0-7.79,4.4-12.03,10.22-12.03,6.84,0,10.54,5.35,10.54,13.21s-3.7,13.21-10.54,13.21c-5.82,0-10.22-4.33-10.22-11.95v-2.44Z"/>
        <path class="cls-1" d="M244.31,79.51c8.26,0,14.79-4.33,17.7-11.56l-8.1-3.07c-1.26,4.25-4.95,6.61-9.6,6.61-6.06,0-10.3-4.33-11.01-11.4h28.94v-3.15c0-11.33-6.37-20.37-18.33-20.37s-19.66,9.36-19.66,21.47c0,12.74,8.26,21.47,20.06,21.47h0ZM243.84,44.52c5.98,0,8.81,3.93,8.89,8.49h-18.95c1.42-5.58,5.19-8.49,10.07-8.49h0Z"/>
        <path class="cls-1" d="M269.32,78.65h9.44v-24.22c0-5.9,4.33-9.04,8.57-9.04,5.19,0,7.24,3.7,7.24,8.81v24.46h9.44v-27.21c0-8.89-5.19-14.86-13.84-14.86-5.35,0-9.04,2.44-11.4,5.19v-4.4h-9.44v41.29Z"/>
        <path class="cls-1" d="M331.65,22.18l-21.39,56.47h9.99l4.8-12.9h24.38l4.88,12.9h10.15l-21.39-56.47h-11.4ZM337.16,33.35l8.97,23.59h-17.77l8.81-23.59Z"/>
        <path class="cls-1" d="M380.65,22.34h-10.07v56.47h10.07V22.34Z"/>
        <path class="cls-1" d="M96.65,42.92c2.38-7.14,1.56-14.96-2.24-21.46-5.72-9.96-17.22-15.09-28.46-12.68C60.95,3.16,53.77-.05,46.24,0c-11.48-.03-21.67,7.37-25.2,18.29-7.38,1.51-13.74,6.13-17.47,12.67-5.76,9.94-4.45,22.46,3.25,30.98-2.38,7.14-1.56,14.96,2.24,21.46,5.72,9.96,17.22,15.09,28.46,12.68,4.99,5.63,12.18,8.83,19.7,8.78,11.49.03,21.68-7.37,25.21-18.31,7.38-1.51,13.74-6.13,17.47-12.67,5.76-9.94,4.44-22.45-3.26-30.97h0ZM57.23,98.01c-4.6,0-9.05-1.6-12.58-4.55.16-.09.44-.24.62-.35l20.88-12.06c1.07-.61,1.72-1.74,1.72-2.97v-29.44l8.83,5.1c.1.05.16.14.17.24v24.38c-.01,10.84-8.79,19.63-19.63,19.65h0ZM15.01,79.98c-2.3-3.98-3.13-8.64-2.34-13.17.15.09.43.26.62.37l20.88,12.06c1.06.62,2.37.62,3.43,0l25.49-14.72v10.19c0,.1-.04.21-.12.27l-21.11,12.19c-9.4,5.41-21.41,2.2-26.85-7.19h0ZM9.52,34.4c2.29-3.98,5.92-7.03,10.23-8.62,0,.18,0,.5,0,.72v24.12c0,1.23.65,2.36,1.71,2.97l25.49,14.72-8.83,5.1c-.09.06-.2.07-.3.03l-21.11-12.2c-9.38-5.43-12.6-17.44-7.19-26.84h0ZM82.02,51.27l-25.49-14.72,8.83-5.09c.09-.06.2-.07.3-.03l21.11,12.19c9.4,5.43,12.62,17.45,7.19,26.85-2.3,3.98-5.92,7.03-10.22,8.61v-24.84c0-1.23-.64-2.36-1.7-2.97h0ZM90.81,38.05c-.15-.1-.43-.26-.62-.37l-20.88-12.06c-1.06-.62-2.37-.62-3.43,0l-25.49,14.72v-10.19c0-.1.04-.21.12-.27l21.11-12.18c9.4-5.42,21.42-2.2,26.84,7.21,2.29,3.97,3.12,8.62,2.34,13.14h0ZM35.59,56.22l-8.83-5.1c-.1-.05-.16-.14-.17-.24v-24.38c0-10.85,8.81-19.65,19.67-19.64,4.59,0,9.03,1.61,12.56,4.55-.16.09-.44.24-.62.35l-20.88,12.06c-1.07.61-1.72,1.74-1.72,2.97v29.42s-.01,0-.01,0ZM40.38,45.88l11.35-6.56,11.35,6.55v13.11l-11.35,6.55-11.35-6.55v-13.11Z"/>
      </g>
    </g>
  </g>
</svg>