<?xml version="1.0" encoding="UTF-8"?>
<svg xmlns="http://www.w3.org/2000/svg" version="1.1" viewBox="0 0 506 110.41">
  <defs>
    <style>
      .cls-1 {
        fill: #fff;
      }
    </style>
  </defs>
  <!-- Generator: Adobe Illustrator 28.6.0, SVG Export Plug-In . SVG Version: 1.2.0 Build 709)  -->
  <g>
    <g id="Layer_1">
      <g>
        <g>
          <path class="cls-1" d="M367.38,24.41h7.69V7.45l-7.69,2.01v-5.07l13.46-3.46v23.49h6.44v5.12h-19.9v-5.12Z"/>
          <path class="cls-1" d="M389.66,19.09l9.14-17.77h10.63v17.77h3.46v5.08h-3.46v5.36h-5.76v-5.36h-14.02v-5.08ZM403.68,19.09V3.06l-8.22,16.03h8.22Z"/>
          <path class="cls-1" d="M431.43,16.67h10.63v4.79h-10.63v-4.79Z"/>
          <path class="cls-1" d="M461,24.41h7.69V7.45l-7.69,2.01v-5.07l13.46-3.46v23.49h6.44v5.12h-19.9v-5.12Z"/>
          <path class="cls-1" d="M495.44.92c5.48,0,9.55,3.38,9.55,7.53,0,2.86-2.05,5.36-5.2,6.57,3.99,1.17,6.2,3.95,6.2,7.01,0,4.39-3.87,7.9-10.56,7.9s-10.55-3.5-10.55-7.9c0-3.06,2.26-5.84,6.2-7.01-3.1-1.21-5.16-3.71-5.16-6.57,0-4.15,4.07-7.53,9.51-7.53ZM495.44,24.81c2.94,0,4.79-1.57,4.79-3.67s-1.93-3.79-4.79-3.79-4.75,1.65-4.75,3.79,1.81,3.67,4.75,3.67ZM495.44,12.72c2.13,0,3.75-1.45,3.75-3.3s-1.61-3.38-3.75-3.38-3.75,1.49-3.75,3.38,1.61,3.3,3.75,3.3Z"/>
          <path class="cls-1" d="M376.62,42.45c5.48,0,9.7,4.14,9.7,9.49s-4.22,9.49-9.7,9.49-9.7-4.14-9.7-9.49,4.22-9.49,9.7-9.49ZM376.62,57.99c3.3,0,5.8-2.64,5.8-6.04s-2.5-6.04-5.8-6.04-5.8,2.64-5.8,6.04,2.53,6.04,5.8,6.04Z"/>
          <path class="cls-1" d="M399.17,42.45c4.3,0,7.38,2.58,8.62,5.35l-3.48,1.34c-.87-1.82-2.74-3.24-5.14-3.24-3.27,0-5.8,2.64-5.8,6.04s2.53,6.04,5.8,6.04c2.4,0,4.27-1.42,5.14-3.24l3.48,1.34c-1.24,2.77-4.33,5.35-8.62,5.35-5.48,0-9.7-4.14-9.7-9.49s4.22-9.49,9.7-9.49Z"/>
          <path class="cls-1" d="M415.95,46.07h-5.64v-3.35h15.08v3.35h-5.67v15.11h-3.77v-15.11Z"/>
          <path class="cls-1" d="M437.79,58.28l7.73-7.15c.82-.77,1.53-1.74,1.53-2.9,0-1.48-1.11-2.32-2.66-2.32-1.69,0-2.77,1.06-2.77,2.98h-3.9c0-4.03,2.82-6.43,6.78-6.43s6.43,2.16,6.43,5.7c0,2.35-1.4,4.22-3.01,5.64l-4.56,4.04h7.83v3.35h-13.4v-2.9Z"/>
          <path class="cls-1" d="M462.69,42.45c4.38,0,7.54,4.09,7.54,9.49s-3.16,9.49-7.54,9.49-7.57-4.09-7.57-9.49,3.19-9.49,7.57-9.49ZM462.69,57.99c2.11,0,3.64-2.58,3.64-6.04s-1.53-6.04-3.64-6.04-3.67,2.58-3.67,6.04,1.53,6.04,3.67,6.04Z"/>
          <path class="cls-1" d="M474.27,58.28l7.73-7.15c.82-.77,1.53-1.74,1.53-2.9,0-1.48-1.11-2.32-2.66-2.32-1.69,0-2.77,1.06-2.77,2.98h-3.9c0-4.03,2.82-6.43,6.78-6.43s6.43,2.16,6.43,5.7c0,2.35-1.4,4.22-3.01,5.64l-4.56,4.04h7.83v3.35h-13.4v-2.9Z"/>
          <path class="cls-1" d="M490.54,54.35l5.99-11.63h6.96v11.63h2.27v3.32h-2.27v3.51h-3.77v-3.51h-9.18v-3.32ZM499.72,54.35v-10.49l-5.38,10.49h5.38Z"/>
        </g>
        <g>
          <path class="cls-1" d="M368.4,76.32h4.37c3.58,0,6.27,2.69,6.27,6.2s-2.69,6.2-6.27,6.2h-4.37v-12.39ZM372.69,87.46c2.83,0,4.94-2.12,4.94-4.94s-2.11-4.94-4.94-4.94h-2.9v9.88h2.9Z"/>
          <path class="cls-1" d="M383.79,76.32v7.81c0,2.04,1.5,3.49,3.66,3.49s3.68-1.45,3.68-3.49v-7.81h1.38v7.81c0,2.8-2.11,4.76-5.06,4.76s-5.05-1.96-5.05-4.76v-7.81h1.38Z"/>
          <path class="cls-1" d="M396.23,76.32h4.96c2.09,0,3.56,1.43,3.56,3.26,0,1.52-1.03,2.58-2.6,2.89,1.86.16,3.13,1.29,3.13,2.99,0,1.82-1.47,3.26-3.56,3.26h-5.49v-12.39ZM401.1,81.92c1.38,0,2.34-.96,2.34-2.2s-.96-2.18-2.34-2.18h-3.5v4.37h3.5ZM401.56,87.49c1.36,0,2.32-.97,2.32-2.2s-.95-2.18-2.32-2.18h-3.97v4.37h3.97Z"/>
          <path class="cls-1" d="M412.89,76.32h2.43l4.9,12.39h-1.49l-1.29-3.29h-6.73l-1.29,3.29h-1.43l4.9-12.39ZM416.96,84.16l-2.89-7.38-2.88,7.38h5.77Z"/>
          <path class="cls-1" d="M423.23,76.32h1.38v12.39h-1.38v-12.39Z"/>
          <path class="cls-1" d="M435.14,76.32h1.4l2.99,11.92,2.78-11.92h2.57l2.8,11.95,2.96-11.95h1.42l-3.1,12.39h-2.58l-2.78-11.97-2.8,11.97h-2.55l-3.1-12.39Z"/>
          <path class="cls-1" d="M461.71,76.14c3.63,0,6.43,2.78,6.43,6.37s-2.8,6.37-6.43,6.37-6.43-2.78-6.43-6.37,2.8-6.37,6.43-6.37ZM461.71,87.62c2.83,0,5.01-2.23,5.01-5.1s-2.18-5.1-5.01-5.1-5.01,2.23-5.01,5.1,2.2,5.1,5.01,5.1Z"/>
          <path class="cls-1" d="M471.68,76.32h4.94c2.27,0,3.84,1.56,3.84,3.58,0,1.88-1.35,3.36-3.33,3.58l3.61,5.24h-1.66l-3.59-5.21h-2.43v5.21h-1.38v-12.39ZM476.62,82.22c1.43,0,2.43-1.01,2.43-2.32s-.99-2.32-2.43-2.32h-3.56v4.64h3.56Z"/>
          <path class="cls-1" d="M484.11,76.32h1.38v11.14h6.25v1.26h-7.63v-12.39Z"/>
          <path class="cls-1" d="M494.85,76.32h4.37c3.58,0,6.27,2.69,6.27,6.2s-2.69,6.2-6.27,6.2h-4.37v-12.39ZM499.14,87.46c2.83,0,4.94-2.12,4.94-4.94s-2.11-4.94-4.94-4.94h-2.9v9.88h2.9Z"/>
          <path class="cls-1" d="M371.64,98.82h-4.2v-1.26h9.77v1.26h-4.19v11.14h-1.38v-11.14Z"/>
          <path class="cls-1" d="M379.56,97.56h4.94c2.27,0,3.84,1.56,3.84,3.58,0,1.88-1.35,3.36-3.33,3.58l3.61,5.24h-1.66l-3.59-5.21h-2.43v5.21h-1.38v-12.39ZM384.5,103.46c1.43,0,2.43-1.01,2.43-2.32s-.99-2.32-2.43-2.32h-3.56v4.64h3.56Z"/>
          <path class="cls-1" d="M395.4,97.56h2.43l4.9,12.39h-1.49l-1.29-3.29h-6.73l-1.29,3.29h-1.43l4.9-12.39ZM399.47,105.41l-2.89-7.38-2.88,7.38h5.77Z"/>
          <path class="cls-1" d="M405.14,97.56h4.37c3.58,0,6.27,2.69,6.27,6.2s-2.69,6.2-6.27,6.2h-4.37v-12.39ZM409.42,108.7c2.83,0,4.94-2.12,4.94-4.94s-2.11-4.94-4.94-4.94h-2.9v9.88h2.9Z"/>
          <path class="cls-1" d="M418.71,97.56h7.63v1.26h-6.25v4.32h6.07v1.24h-6.07v4.32h6.25v1.26h-7.63v-12.39Z"/>
          <path class="cls-1" d="M441.75,97.39c2.74,0,4.8,1.66,5.67,3.58l-1.26.53c-.76-1.63-2.39-2.83-4.41-2.83-2.81,0-5.01,2.23-5.01,5.1s2.2,5.1,5.01,5.1c2.02,0,3.65-1.2,4.41-2.83l1.26.53c-.87,1.91-2.92,3.58-5.67,3.58-3.63,0-6.43-2.78-6.43-6.37s2.8-6.37,6.43-6.37Z"/>
          <path class="cls-1" d="M450.35,97.56h7.63v1.26h-6.25v4.32h6.07v1.24h-6.07v4.32h6.25v1.26h-7.63v-12.39Z"/>
          <path class="cls-1" d="M460.97,97.56h2.71l6.37,12.11v-12.11h1.38v12.39h-2.71l-6.37-12.09v12.09h-1.38v-12.39Z"/>
          <path class="cls-1" d="M477.97,98.82h-4.2v-1.26h9.77v1.26h-4.19v11.14h-1.38v-11.14Z"/>
          <path class="cls-1" d="M485.88,97.56h4.94c2.27,0,3.84,1.56,3.84,3.58,0,1.88-1.35,3.36-3.33,3.58l3.61,5.24h-1.66l-3.59-5.21h-2.43v5.21h-1.38v-12.39ZM490.82,103.46c1.43,0,2.43-1.01,2.43-2.32s-.99-2.32-2.43-2.32h-3.56v4.64h3.56Z"/>
          <path class="cls-1" d="M497.7,97.56h7.63v1.26h-6.25v4.32h6.07v1.24h-6.07v4.32h6.25v1.26h-7.63v-12.39Z"/>
        </g>
        <g>
          <path class="cls-1" d="M43.81,98.06h8.15v9.8c-1.21.88-2.5,1.53-3.87,1.94-1.37.41-2.82.61-4.34.61-1.95,0-3.72-.3-5.3-.91-1.58-.61-2.93-1.45-4.06-2.53-1.12-1.08-1.99-2.36-2.6-3.84-.61-1.48-.92-3.1-.92-4.86s.29-3.41.87-4.89c.58-1.48,1.42-2.76,2.49-3.83,1.08-1.07,2.38-1.9,3.92-2.5,1.53-.6,3.25-.9,5.14-.9.98,0,1.9.08,2.75.24.85.16,1.64.38,2.35.65s1.38.61,1.98.99c.6.38,1.15.8,1.64,1.26l-1.42,2.19c-.22.35-.5.56-.85.64-.35.08-.73-.01-1.14-.26-.39-.24-.78-.46-1.15-.65-.38-.19-.78-.36-1.2-.5-.42-.14-.89-.25-1.39-.33-.5-.08-1.08-.11-1.73-.11-1.1,0-2.1.19-2.99.57-.89.38-1.65.92-2.28,1.62-.63.7-1.11,1.54-1.45,2.52-.34.98-.51,2.08-.51,3.29,0,1.31.19,2.48.56,3.51.37,1.03.89,1.9,1.57,2.61.68.71,1.49,1.25,2.43,1.62.94.37,1.99.56,3.15.56.79,0,1.49-.08,2.1-.24.62-.16,1.22-.37,1.81-.65v-3.99h-2.68c-.32,0-.56-.08-.74-.25-.18-.17-.27-.38-.27-.65v-2.73Z"/>
          <polygon class="cls-1" points="100.79 106.16 100.79 110.15 86.71 110.15 86.71 86.42 91.62 86.42 91.62 106.16 100.79 106.16"/>
          <path class="cls-1" d="M151.72,98.27c0-1.24-.16-2.36-.49-3.34-.33-.99-.8-1.83-1.41-2.52-.62-.69-1.36-1.22-2.24-1.59-.88-.36-1.87-.55-2.99-.55s-2.11.18-2.99.55c-.88.37-1.63.89-2.25,1.59-.62.69-1.09,1.53-1.42,2.52-.33.99-.49,2.1-.49,3.34s.16,2.37.49,3.36c.33.99.8,1.82,1.42,2.51.62.69,1.37,1.21,2.25,1.58.88.36,1.88.55,2.99.55s2.11-.18,2.99-.55c.88-.36,1.62-.89,2.24-1.58.62-.69,1.09-1.52,1.41-2.51.33-.99.49-2.11.49-3.36M156.74,98.27c0,1.73-.29,3.34-.87,4.82-.58,1.48-1.41,2.76-2.47,3.84-1.06,1.08-2.34,1.93-3.84,2.54-1.49.62-3.15.92-4.97.92s-3.48-.31-4.97-.92c-1.49-.62-2.78-1.46-3.84-2.54-1.07-1.08-1.9-2.36-2.48-3.84-.58-1.48-.87-3.09-.87-4.82s.29-3.34.87-4.82c.58-1.48,1.41-2.76,2.48-3.84,1.07-1.08,2.35-1.93,3.84-2.54,1.49-.62,3.15-.93,4.97-.93s3.48.31,4.97.93c1.49.62,2.77,1.47,3.84,2.55,1.06,1.09,1.89,2.37,2.47,3.84.58,1.48.87,3.08.87,4.8"/>
          <path class="cls-1" d="M200.2,106.39c.79,0,1.43-.09,1.94-.29.51-.19.91-.44,1.22-.76.31-.32.52-.68.64-1.09.12-.41.18-.83.18-1.27,0-.48-.07-.91-.21-1.29-.14-.38-.37-.71-.69-.97-.32-.27-.73-.47-1.24-.61-.51-.14-1.13-.21-1.87-.21h-4.17v6.49h4.2ZM196,90.14v6.41h3.22c.69,0,1.3-.06,1.83-.17.53-.12.98-.3,1.34-.55.36-.25.64-.58.83-.99.19-.41.29-.9.29-1.48s-.08-1.09-.24-1.5c-.16-.41-.4-.75-.73-1-.33-.25-.74-.43-1.24-.55-.5-.12-1.1-.17-1.78-.17h-3.52ZM199.51,86.42c1.59,0,2.95.15,4.08.45,1.13.3,2.05.72,2.76,1.28.71.55,1.24,1.22,1.56,2,.33.79.49,1.66.49,2.63,0,.54-.08,1.07-.24,1.57-.16.5-.4.97-.74,1.41-.33.44-.76.84-1.28,1.2-.52.36-1.15.67-1.86.92,1.61.38,2.81,1,3.58,1.86.78.86,1.16,1.98,1.16,3.35,0,1-.19,1.94-.58,2.8-.39.86-.95,1.61-1.69,2.24-.74.63-1.65,1.13-2.74,1.48-1.09.35-2.33.53-3.74.53h-9.19v-23.73h8.42Z"/>
          <path class="cls-1" d="M255.68,101.14l-2.57-7.26c-.15-.38-.31-.83-.48-1.34-.17-.51-.33-1.07-.48-1.67-.15.61-.31,1.17-.48,1.69-.17.52-.33.97-.48,1.35l-2.55,7.23h7.05ZM263.92,110.15h-3.81c-.42,0-.77-.1-1.04-.3-.27-.2-.47-.46-.6-.78l-1.6-4.53h-9.45l-1.6,4.53c-.11.27-.3.52-.57.74-.27.22-.62.34-1.03.34h-3.84l9.27-23.73h5.02l9.26,23.73Z"/>
          <polygon class="cls-1" points="310.95 106.16 310.95 110.15 296.86 110.15 296.86 86.42 301.77 86.42 301.77 106.16 310.95 106.16"/>
          <path class="cls-1" d="M289.36,32.15l20.12-31.09-13.28.06s-2.41-.23-3.71,2.05l-10.94,16.91-11.01-17.02c-1.3-2.27-3.71-2.05-3.71-2.05l-13.22-.06,20.16,31.16-21.84,33.75,15.67-.07,13.98-21.6,13.91,21.49,15.61.07-21.74-33.59Z"/>
          <polygon class="cls-1" points="207.09 55.21 207.01 39.79 227.58 39.61 227.54 28.09 206.95 28.27 206.95 28.14 206.86 11.54 234.55 11.39 234.49 .93 193.36 1.15 193.7 65.74 234.84 65.52 234.78 55.06 207.09 55.21"/>
          <polygon class="cls-1" points="120.87 1.6 120.92 12.66 139.82 12.55 140.11 66.19 153.51 66.12 153.22 12.48 172.1 12.37 172.04 1.31 120.87 1.6"/>
          <rect class="cls-1" x="86.72" y=".5" width="13.44" height="65.64" transform="translate(-.18 .5) rotate(-.3)"/>
          <path class="cls-1" d="M51.44,20.64l9.7-6.73C54.81,5.25,44.66,0,33.8,0,15.16,0,0,15.17,0,33.81h11.8c0-12.14,9.87-22.01,22-22.01,6.97,0,13.51,3.33,17.63,8.84"/>
          <path class="cls-1" d="M38.16,30.93v11.16h14.8c-2.31,7.91-8.51,14.61-19.16,14.61-.92,0-1.82-.06-2.71-.17v11.87c.89.07,1.8.11,2.71.11,9.31,0,17.66-3.62,23.52-10.2,5.48-6.16,8.5-14.54,8.5-23.61,0-1.26-.08-2.52-.22-3.76h-27.44Z"/>
        </g>
      </g>
    </g>
  </g>
</svg>